{"title":"Within Temptation - Memories [HD]1080p ~5.1DTS~","uid":6443397,"size":346010611,"categoryP":"video","categoryS":"music_videos","magnet":"?xt=urn:btih:7ebd7af87d9156cb4895b7bf9d45e83f682a535e&amp;dn=Within+Temptation+-+Memories+%5BHD%5D1080p+%7E5.1DTS%7E&amp;tr=udp%3A%2F%2Ftracker.openbittorrent.com%3A80&amp;tr=udp%3A%2F%2Fopen.demonii.com%3A1337&amp;tr=udp%3A%2F%2Ftracker.coppersurfer.tk%3A6969&amp;tr=udp%3A%2F%2Fexodus.desync.com%3A6969","seeders":2,"leechers":0,"uploader":"ankurgow3","files":-1,"time":1307046048,"description":"Torrent Info:\n\nVideo\nID                               : 1\nFormat                           : AVC\nFormat/Info                      : Advanced Video Codec\nFormat profile                   : &lt;a class=&quot;__cf_email__&quot; href=&quot;/cdn-cgi/l/email-protection&quot; data-cfemail=&quot;327a5b555a727e061c02&quot;&gt;[email&amp;#160;protected]&lt;/a&gt;&lt;script cf-hash='f9e31' type=&quot;text/javascript&quot;&gt;\n/* &lt;![CDATA[ */!function(){try{var t=&quot;currentScript&quot;in document?document.currentScript:function(){for(var t=document.getElementsByTagName(&quot;script&quot;),e=t.length;e--;)if(t[e].getAttribute(&quot;cf-hash&quot;))return t[e]}();if(t&amp;&amp;t.previousSibling){var e,r,n,i,c=t.previousSibling,a=c.getAttribute(&quot;data-cfemail&quot;);if(a){for(e=&quot;&quot;,r=parseInt(a.substr(0,2),16),n=2;a.length-n;n+=2)i=parseInt(a.substr(n,2),16)^r,e+=String.fromCharCode(i);e=document.createTextNode(e),c.parentNode.replaceChild(e,c)}}}catch(u){}}();/* ]]&gt; */&lt;/script&gt;\nFormat settings, CABAC           : Yes\nFormat settings, ReFrames        : 3 frames\nCodec ID                         : V_MPEG4/ISO/AVC\nDuration                         : 3mn 50s\nBit rate mode                    : Variable\nBit rate                         : 11.0 Mbps\nMaximum bit rate                 : 25.0 Mbps\nWidth                            : 1 920 pixels\nHeight                           : 1 080 pixels\nDisplay aspect ratio             : 16:9\nFrame rate                       : 25.000 fps\nColor space                      : YUV\nChroma subsampling               : 4:2:0\nBit depth                        : 8 bits\nScan type                        : Progressive\nBits/(Pixel*Frame)               : 0.212\nStream size                      : 301 MiB (92%)\nLanguage                         : English\n\nAudio\nID                               : 2\nFormat                           : DTS\nFormat/Info                      : Digital Theater Systems\nCodec ID                         : A_DTS\nDuration                         : 3mn 50s\nBit rate mode                    : Constant\nBit rate                         : 755 Kbps\nChannel(s)                       : 6 channels\nChannel positions                : Front: L C R, Side: L R, LFE\nSampling rate                    : 48.0 KHz\nBit depth                        : 24 bits\nCompression mode                 : Lossy\nStream size                      : 20.7 MiB (6%)\nLanguage                         : English\n\nScreens:\n[link]http://s830.photobucket.com/albums/zz221/ankur1402/Within%20Temptation%20-%20Memories/[/link]","torrent":{"xt":"urn:btih:7ebd7af87d9156cb4895b7bf9d45e83f682a535e","amp;dn":"Within+Temptation+-+Memories+%5BHD%5D1080p+%7E5.1DTS%7E","amp;tr":["udp%3A%2F%2Ftracker.openbittorrent.com%3A80","udp%3A%2F%2Fopen.demonii.com%3A1337","udp%3A%2F%2Ftracker.coppersurfer.tk%3A6969","udp%3A%2F%2Fexodus.desync.com%3A6969"],"infoHash":"7ebd7af87d9156cb4895b7bf9d45e83f682a535e","infoHashBuffer":{"type":"Buffer","data":[126,189,122,248,125,145,86,203,72,149,183,191,157,69,232,63,104,42,83,94]},"announce":[],"urlList":[]}}